# xmcd
#
# Track frame offsets:
#	150
#	14421
#	26228
#	40084
#	58245
#	70381
#	88317
#	106325
#	118821
#	131216
#
# Disc length: 1860 seconds
#
# Revision: 0
# Processed by: cddbd v1.5.2PL0 Copyright (c) Steve Scherf et al.
# Submitted via: EasyCDDAExtractor 12.0.1.1
#
DISCID=9607420a
DTITLE=Wolfman Jack - Now!
DYEAR=2009
DGENRE=Blues
TTITLE0=Blowin' Down Your Shack
TTITLE1=Can't Hold Out
TTITLE2=Shake My Tree
TTITLE3=Watch Out!
TTITLE4=Madison Blues
TTITLE5=Lonesome Whistle Blues
TTITLE6=Who's Gonna Be Your Man
TTITLE7=Mama, Talk to Your Daughter
TTITLE8=Watchin'
TTITLE9=Don't Mind I Do
EXTD=
EXTT0=
EXTT1=
EXTT2=
EXTT3=
EXTT4=
EXTT5=
EXTT6=
EXTT7=
EXTT8=
EXTT9=
PLAYORDER=
